PathFileType   4   (X/Y/Z)																																																																																																																							
DataRate	CameraRate	NumFrames	NumMarkers	Units	OrigDataRate	OrigDataStartFrame	OrigNumFrames																																																																																																																
120	120	4	37	mm	120	79	125																																																																																																																
Frame#	Time	Sternum	R.Acromium	L.Acromium	Top.Head	R.ASIS	L.ASIS	V.Sacral	R.Thigh.Upper	R.Thigh.Front	R.Thigh.Rear	R.Knee.Lat	R.Knee.Med	R.Shank.Upper	R.Shank.Front	R.Shank.Rear	R.Ankle.Lat	R.Ankle.Med	R.Heel	R.Midfoot.Sup	R.Midfoot.Lat	R.Toe.Lat	R.Toe.Med	R.Toe.Tip	L.Thigh.Upper	L.Thigh.Front	L.Thigh.Rear	L.Knee.Lat	L.Knee.Med	L.Shank.Upper	L.Shank.Front	L.Shank.Rear	L.Ankle.Lat	L.Ankle.Med	L.Heel	L.Midfoot.Sup	L.Midfoot.Lat	L.Toe.Lat	L.Toe.Med	L.Toe.Tip																																																																															
 	 	X1	Y1	Z1	X2	Y2	Z2	X3	Y3	Z3	X4	Y4	Z4	X5	Y5	Z5	X6	Y6	Z6	X7	Y7	Z7	X8	Y8	Z8	X9	Y9	Z9	X10	Y10	Z10	X11	Y11	Z11	X12	Y12	Z12	X13	Y13	Z13	X14	Y14	Z14	X15	Y15	Z15	X16	Y16	Z16	X17	Y17	Z17	X18	Y18	Z18	X19	Y19	Z19	X20	Y20	Z20	X21	Y21	Z21	X22	Y22	Z22	X23	Y23	Z23	X24	Y24	Z24	X25	Y25	Z25	X26	Y26	Z26	X27	Y27	Z27	X28	Y28	Z28	X29	Y29	Z29	X30	Y30	Z30	X31	Y31	Z31	X32	Y32	Z32	X33	Y33	Z33	X34	Y34	Z34	X35	Y35	Z35	X36	Y36	Z36	X37	Y37	Z37							
																																																																																																																							
	79	0.775	785.34126	-0.001002095	1257.429242	700.0826533	-161.9453511	1310.075504	702.8265837	165.1979949	1310.260297	765.2429987	-10.08809499	1548.915683	860.1755176	-117.7896216	872.1106022	865.4580282	119.399185	864.4235098	684.0378877	-5.611229398	884.2806027	873.5555765	-173.4115572	555.9442476	948.9155928	-67.95180237	501.3063665	887.402341	-162.9734513	422.3519818	862.2337516	-142.5943975	321.0988971	863.821066	-8.355853302	302.5979986	822.9579757	-154.6508593	287.3517617	903.1727919	-93.81404015	241.2264955	832.6763125	-165.0122006	190.9971848	808.5444158	-136.9768135	-127.0108456	818.5641911	-37.22329306	-111.5756053	736.184098	-79.10633289	-150.0999864	888.4812735	-41.71858376	-145.4947005	881.8925624	-155.3841374	-166.122772	975.3973146	-165.0174344	-196.1353287	978.5412221	-50.15543807	-182.4248926	1043.035429	-83.79364801	-185.0816903	848.1663895	178.8034865	564.0132392	941.1871431	95.03600439	532.8017309	857.1637569	161.7547942	443.5148771	851.8152151	144.5366564	296.8191708	853.0238152	15.87918741	297.8181708	786.9265471	162.4477689	291.4414268	769.2232242	100.5194763	219.0771473	736.3436045	174.5177999	279.7774167	459.1580088	136.4325857	64.16912122	483.129012	34.31683281	75.2873953	409.2440598	76.11439987	132.8632623	480.2795624	48.15109198	-35.33544938	472.9745058	152.6198727	-17.28227661	475.286234	163.716336	-88.63284445	482.0377395	55.50675189	-105.3751539	502.4004978	82.30973808	-153.3544013
	80	0.78333	794.2408449	-0.001002095	1258.129349	709.0508311	-161.9453511	1310.886534	711.7949997	165.1979949	1311.067755	774.5219793	-10.08809499	1549.641702	868.5248841	-117.7896216	872.5996127	873.7893856	119.399185	864.9001756	692.4162256	-5.611229398	885.1819002	878.3485469	-173.4115572	555.1664075	952.9002984	-67.95180237	499.4307234	890.2373408	-162.9734513	421.3856803	863.5885788	-142.5943975	320.5120538	864.9047736	-8.355853302	301.9898929	824.2384476	-154.6508593	287.1065554	904.1600666	-93.81404015	240.4751096	833.3474566	-165.0122006	190.6924667	807.2056614	-136.9768135	-127.1566522	817.3228149	-37.22329306	-111.7850633	734.8171911	-79.10633289	-150.1779387	887.1203159	-41.71858376	-145.7737911	880.5043676	-155.3841374	-166.3931431	973.9694016	-165.0174344	-196.5291626	977.1314133	-50.15543807	-182.8228905	1041.622055	-83.79364801	-185.5648614	862.2399014	178.8034865	566.8785451	956.0720682	95.03600439	538.1985287	874.4984022	161.7547942	446.6681584	873.1259746	144.5366564	299.8813961	874.307067	15.87918741	300.9127717	807.8334693	162.4477689	293.3224721	791.1818027	100.5194763	220.7089845	757.4250602	174.5177999	280.9258794	483.3964771	136.4325857	61.31912352	507.2036643	34.31683281	72.7839765	430.4249426	76.11439987	127.7482702	509.1909025	48.15109198	-36.97201626	501.0557731	152.6198727	-19.27736823	506.676778	163.716336	-90.44373615	514.1981086	55.50675189	-106.854627	536.7658984	82.30973808	-153.837017
	81	0.79167	803.1090265	-0.001002095	1258.784681	717.9906349	-161.9453511	1311.657343	720.7350468	165.1979949	1311.834843	783.7854983	-10.08809499	1550.323507	876.8288425	-117.7896216	873.058294	882.0761265	119.399185	865.3471126	700.7487386	-5.611229398	886.0340633	883.1389107	-173.4115572	554.4209065	956.8797485	-67.95180237	497.6166906	893.0986386	-162.9734513	420.4827484	864.9990162	-142.5943975	320.0036149	866.0481629	-8.355853302	301.4644104	825.5683025	-154.6508593	286.9395174	905.1875167	-93.81404015	239.7935987	834.0553136	-165.0122006	190.4686867	805.864141	-136.9768135	-127.2052242	816.080221	-37.22329306	-111.8992041	733.4461419	-79.10633289	-150.1548599	885.7551916	-41.71858376	-145.9606121	879.1108332	-155.3841374	-166.5708268	972.5342467	-165.0174344	-196.8356259	975.7151446	-50.15543807	-183.1337245	1040.201947	-83.79364801	-185.9645702	876.0358235	178.8034865	569.7897638	970.5885322	95.03600439	543.5828157	891.445738	161.7547942	449.942601	893.9270769	144.5366564	303.1703962	895.0806877	15.87918741	304.2324212	828.4619457	162.4477689	295.255722	813.1433229	100.5194763	222.3493684	778.2890965	174.5177999	281.9377482	508.3296062	136.4325857	57.34775479	531.9227667	34.31683281	69.24682168	452.1655145	76.11439987	121.1616724	539.0993348	48.15109198	-39.39784961	530.0863833	152.6198727	-22.13379434	539.2720641	163.716336	-92.92836254	547.60756	55.50675189	-108.9410843	572.5049019	82.30973808	-154.7316126
	82	0.8	811.9487679	-0.001002095	1259.391139	726.9053762	-161.9453511	1312.384351	729.6500368	165.1979949	1312.557962	793.0383357	-10.08809499	1550.957051	885.0941704	-117.7896216	873.4963052	890.325984	119.399185	865.7746193	709.0404351	-5.611229398	886.8250658	887.9310954	-173.4115572	553.6983774	960.855617	-67.95180237	495.8499179	895.9826562	-162.9734513	419.6319806	866.4551511	-142.5943975	319.5631468	867.2402101	-8.355853302	301.0108829	826.9382701	-154.6508593	286.8414087	906.2452504	-93.81404015	239.1721335	834.789732	-165.0122006	190.316774	804.5069434	-136.9768135	-127.1645775	814.8236085	-37.22329306	-111.9261733	732.0590252	-79.10633289	-150.0420929	884.3737719	-41.71858376	-146.0600983	877.7006987	-155.3841374	-166.6610338	971.0818462	-165.0174344	-197.0559931	974.2818352	-50.15543807	-183.3585377	1038.76463	-83.79364801	-186.2792458	889.5431017	178.8034865	572.7161788	984.727834	95.03600439	548.9068194	907.9764737	161.7547942	453.2966716	914.1657581	144.5366564	306.6340318	915.2921646	15.87918741	307.7248679	848.7673781	162.4477689	297.2111511	835.0565989	100.5194763	223.9853966	798.8997063	174.5177999	282.7924644	533.9471515	136.4325857	52.31700962	557.272789	34.31683281	64.73230862	474.5353802	76.11439987	113.1760115	569.8951051	48.15109198	-42.52682119	559.9756893	152.6198727	-25.76716461	572.9179006	163.716336	-95.97219851	582.0941928	55.50675189	-111.5183689	609.3943996	82.30973808	-155.918243
